<svg width="145" height="30" viewBox="0 0 145 30" fill="none" xmlns="http://www.w3.org/2000/svg">
<path d="M40.1008 15.4383C40.0809 15.4981 40.041 15.5977 39.9812 15.7371C39.9213 15.8566 39.8615 16.016 39.7818 16.1754C39.702 16.3347 39.6422 16.514 39.5425 16.6933C39.4627 16.8726 39.383 17.0519 39.3032 17.2511C39.2833 17.3108 39.2434 17.3706 39.2235 17.4104C39.2035 17.4503 39.1636 17.4702 39.1038 17.4901C39.044 17.51 38.9642 17.51 38.8845 17.51C38.7848 17.51 38.6452 17.51 38.4857 17.5299L37.4488 17.5499L37.2495 19.8407H41.0778V20.1395C41.0579 20.1395 41.018 20.2192 40.9582 20.3387C40.8984 20.4582 40.7987 20.5977 40.699 20.777C40.5993 20.9363 40.4996 21.1156 40.38 21.2949C40.2803 21.4742 40.1806 21.6136 40.1008 21.7132C40.0609 21.7929 40.0011 21.8726 39.9213 21.9323C39.8615 21.9921 39.7818 22.0319 39.702 22.0519C39.6223 22.0718 39.5425 22.0917 39.4428 22.0917C39.3431 22.0917 39.2434 22.0917 39.1437 22.0917C38.705 22.0917 38.2265 22.0917 37.7479 22.0718C37.2694 22.0519 36.7709 22.0319 36.2924 21.9921C35.8138 21.9722 35.3353 21.9323 34.8766 21.8925C34.418 21.8527 33.9794 21.8128 33.6005 21.773C33.5606 21.773 33.5407 21.7531 33.5008 21.7132C33.4809 21.6734 33.4609 21.6335 33.4609 21.5937C33.441 21.5937 33.4609 21.5538 33.5008 21.4742C33.5407 21.3945 33.6205 21.275 33.7002 21.1554C33.78 21.016 33.8797 20.8766 33.9794 20.6973C34.0791 20.518 34.1788 20.3586 34.2785 20.1793L34.3981 18.506C34.418 18.2272 34.438 18.008 34.438 17.8686C34.4579 17.7291 34.4579 17.6495 34.4579 17.6495C34.1588 17.6495 33.9395 17.6295 33.78 17.6096C33.6404 17.5897 33.5606 17.5299 33.5606 17.4503C33.5606 17.4104 33.6005 17.3307 33.6603 17.2311C33.7401 17.1315 33.8199 16.9921 33.9196 16.8527C34.0193 16.7132 34.1389 16.5538 34.2585 16.4144C34.3782 16.255 34.4779 16.1156 34.5776 15.9961L34.757 13.4662H34.7371C34.6374 13.4662 34.5377 13.4662 34.438 13.4861C34.3582 13.4861 34.2585 13.4861 34.1987 13.4861C33.9594 13.4861 33.78 13.4662 33.6803 13.4463C33.5806 13.4264 33.5208 13.3666 33.5208 13.2869C33.5208 13.2471 33.5407 13.1873 33.6005 13.0678C33.6603 12.9682 33.7401 12.8287 33.8199 12.6893C33.8996 12.5499 33.9993 12.3905 34.099 12.2511C34.1987 12.0917 34.2785 11.9523 34.3582 11.8128L34.7969 11.0558H37.9274L41.6162 10.7969C41.6162 10.7969 41.6361 10.7969 41.6561 10.7969C41.676 10.7969 41.696 10.7969 41.7358 10.8168C41.7558 10.8367 41.7757 10.8566 41.8156 10.8766C41.8355 10.8965 41.8555 10.9562 41.8555 10.9961L41.7358 11.3746C41.696 11.4742 41.6561 11.5937 41.6162 11.7132C41.5763 11.8327 41.5165 11.9523 41.4567 12.0917L41.1377 12.9483C41.0978 13.028 41.0579 13.0877 41.018 13.1475C40.9781 13.2072 40.8784 13.2072 40.7389 13.2272C40.36 13.2272 39.9413 13.2471 39.4627 13.267C39.0041 13.2869 38.4658 13.3068 37.8676 13.3268C37.8476 13.3865 37.8476 13.4463 37.8476 13.4861C37.8476 13.526 37.8476 13.6056 37.8277 13.7252L37.7878 14.0638C37.7679 14.2232 37.7679 14.4025 37.7479 14.5817C37.728 14.761 37.7081 15.0001 37.6682 15.259C37.9274 15.259 38.1667 15.2391 38.4059 15.2391C38.6452 15.2391 38.8645 15.2192 39.0639 15.2192C39.2633 15.2192 39.4428 15.1993 39.5824 15.1993C39.7219 15.1993 39.8416 15.1993 39.9014 15.1993C39.9413 15.1993 39.9812 15.2192 40.041 15.2391C40.0809 15.259 40.1207 15.3188 40.1207 15.4184C40.1407 15.3586 40.1207 15.3985 40.1008 15.4383Z" fill="white"/>
<path d="M42.59 15.3191C42.6498 14.6418 42.6897 13.9645 42.7295 13.2873C42.7694 12.6299 42.8093 11.9327 42.8492 11.2355C42.8691 11.0761 42.8691 10.9566 42.8891 10.8968C42.909 10.8371 42.9688 10.7972 43.0486 10.7773C43.5072 10.6976 43.9857 10.598 44.4443 10.5183C44.9029 10.4387 45.3815 10.3191 45.8401 10.1797C45.86 10.1797 45.88 10.1797 45.8999 10.1797C45.9597 10.1797 45.9797 10.1996 45.9797 10.2594L45.0026 20.9167V21.0363C45.0026 21.0761 44.9827 21.1159 44.9428 21.1359C44.9029 21.1558 44.8232 21.1956 44.7036 21.2355L42.7495 21.9526C42.6897 21.9725 42.6298 22.0124 42.5301 22.0323C42.4504 22.0522 42.3507 22.0721 42.2709 22.0721C42.1912 22.0721 42.1314 22.0522 42.0915 22.0124C42.0317 21.9725 42.0117 21.9128 42.0117 21.8331V21.7932C42.0516 21.2952 42.0915 20.7972 42.1314 20.3191C42.1712 19.841 42.2111 19.343 42.251 18.8251C42.2909 18.3072 42.3308 17.7693 42.3906 17.1916C42.4703 16.6339 42.5301 16.0163 42.59 15.3191Z" fill="white"/>
<path d="M51.1646 13.3086C51.6432 13.3086 52.0619 13.3883 52.4607 13.5676C52.8395 13.7468 53.1785 13.966 53.4577 14.2448C53.7368 14.5237 53.9561 14.8425 54.0957 15.1811C54.2353 15.5197 54.3151 15.8783 54.3151 16.217C54.3151 16.5158 54.2154 16.8345 54.0359 17.1532C53.8564 17.4719 53.5773 17.7508 53.2383 17.9899C52.8994 18.2488 52.4806 18.448 52.0021 18.5875C51.5235 18.7269 51.0051 18.8265 50.4269 18.8265C50.1278 18.8265 49.8087 18.8066 49.4897 18.7468C49.5096 18.966 49.5695 19.1452 49.6692 19.3046C49.7689 19.464 49.9084 19.5835 50.0679 19.6831C50.2275 19.7827 50.4069 19.8624 50.6063 19.9022C50.8057 19.9421 51.025 19.9819 51.2244 19.9819C51.4637 19.9819 51.703 19.962 51.9223 19.9221C52.1417 19.8823 52.361 19.8225 52.5604 19.7628C52.7598 19.703 52.9592 19.6233 53.1586 19.5237C53.338 19.4441 53.5175 19.3444 53.6969 19.2648C53.7368 19.2648 53.7767 19.2448 53.8166 19.2448C53.8564 19.2448 53.8764 19.2249 53.9163 19.2249C53.9163 19.3843 53.9163 19.5437 53.9163 19.6831C53.9163 19.8225 53.9163 20.0018 53.9163 20.201C53.9163 20.4002 53.9163 20.6393 53.8963 20.8783C53.9163 20.8982 53.9163 20.9381 53.9163 20.958C53.9163 20.9779 53.9163 20.9978 53.9163 21.0178C53.9163 21.0775 53.8564 21.1373 53.7568 21.217C53.6571 21.2767 53.4975 21.3564 53.3181 21.4361C53.1386 21.5158 52.9392 21.5755 52.7199 21.6552C52.5006 21.715 52.2613 21.7946 52.022 21.8544C51.7827 21.9142 51.5634 21.954 51.3441 21.9939C51.1247 22.0337 50.9253 22.0337 50.7658 22.0337C50.2275 22.0337 49.709 21.9341 49.1906 21.7548C48.6921 21.5755 48.2335 21.2966 47.8547 20.958C47.4559 20.6193 47.1568 20.1811 46.9175 19.6831C46.6782 19.1851 46.5586 18.6273 46.5586 18.0098C46.5586 17.3524 46.6782 16.7548 46.8976 16.1771C47.1169 15.5994 47.4359 15.1014 47.8347 14.6831C48.2335 14.2648 48.732 13.9261 49.2903 13.6871C49.8685 13.4281 50.4867 13.3086 51.1646 13.3086ZM51.0649 15.3006C50.8655 15.3006 50.6661 15.3405 50.5066 15.4401C50.3272 15.5197 50.1876 15.6592 50.0281 15.8186C49.8885 15.9779 49.7689 16.1771 49.6492 16.3962C49.5296 16.6154 49.4698 16.8743 49.39 17.1532C49.9084 17.0735 50.3272 16.9739 50.6661 16.8743C51.0051 16.7747 51.2843 16.6751 51.4837 16.5755C51.683 16.4759 51.8226 16.3763 51.9223 16.2767C52.022 16.1771 52.042 16.0775 52.042 15.9779C52.042 15.8982 52.0021 15.7986 51.9423 15.719C51.8824 15.6393 51.7827 15.5795 51.683 15.5197C51.5833 15.46 51.4836 15.4201 51.364 15.3803C51.2643 15.3205 51.1646 15.3006 51.0649 15.3006Z" fill="white"/>
<path d="M55.0938 17.9899C55.0938 17.3325 55.2134 16.7349 55.4527 16.1572C55.6919 15.5795 56.0309 15.0815 56.4496 14.6632C56.8684 14.2448 57.3868 13.9062 57.965 13.6672C58.5433 13.4281 59.1814 13.3086 59.8593 13.3086C60.3179 13.3086 60.7167 13.3484 61.0557 13.4281C61.3747 13.5078 61.6538 13.5875 61.8532 13.6871C62.0526 13.7867 62.2122 13.8664 62.3118 13.946C62.4115 14.0257 62.4514 14.0656 62.4514 14.0656C62.4514 14.0855 62.4315 14.1851 62.4115 14.3245C62.3916 14.464 62.3717 14.6233 62.3318 14.8026C62.3119 14.9819 62.272 15.1612 62.252 15.3604C62.2321 15.5596 62.2122 15.719 62.2122 15.8584C62.2122 15.8783 62.2122 15.9182 62.1922 15.9381C62.1723 15.958 62.1324 15.9779 62.0726 15.9779C62.0128 15.9779 61.933 15.958 61.8134 15.9182C61.6937 15.8783 61.5541 15.8385 61.3946 15.7787C61.2351 15.719 61.0357 15.6791 60.8164 15.6393C60.5971 15.5994 60.3578 15.5795 60.0986 15.5795C59.7795 15.5795 59.4804 15.6393 59.2013 15.7588C58.9421 15.8783 58.7028 16.0377 58.5233 16.2369C58.3439 16.4361 58.1844 16.695 58.0847 16.9739C57.985 17.2528 57.9252 17.5715 57.9252 17.8903C57.9252 18.2289 57.985 18.5277 58.0847 18.7668C58.1844 19.0058 58.3439 19.205 58.5233 19.3644C58.7028 19.5237 58.9022 19.6233 59.1415 19.703C59.3807 19.7628 59.62 19.8026 59.8792 19.8026C60.1783 19.8026 60.4774 19.7628 60.7765 19.6831C61.0756 19.6034 61.3747 19.4839 61.6339 19.3444C61.6538 19.3444 61.6538 19.3444 61.6937 19.3444C61.7137 19.3444 61.7336 19.3644 61.7535 19.3843C61.7735 19.4042 61.7735 19.464 61.7735 19.5237C61.7735 19.6831 61.7735 19.8823 61.7735 20.1014C61.7735 20.3205 61.7735 20.5397 61.7735 20.7588C61.7735 20.958 61.7735 21.1373 61.7535 21.2767C61.7535 21.4162 61.7336 21.4958 61.7336 21.4958C61.5541 21.6154 61.3548 21.715 61.1554 21.7946C60.956 21.8743 60.7366 21.9341 60.5173 21.9739C60.298 22.0138 60.0786 22.0536 59.8394 22.0536C59.62 22.0735 59.4007 22.0735 59.1813 22.0735C58.6031 22.0735 58.0647 21.9739 57.5463 21.7747C57.0478 21.5755 56.6092 21.3166 56.2303 20.958C55.8515 20.5994 55.5723 20.1811 55.353 19.6831C55.1935 19.1452 55.0938 18.6074 55.0938 17.9899Z" fill="white"/>
<path d="M67.3156 15.8758C67.2358 16.3937 67.176 16.9117 67.1162 17.4296C67.0563 17.9475 67.0165 18.4455 66.9965 18.8838C66.9965 19.083 67.0165 19.2423 67.0364 19.3618C67.0564 19.5013 67.1162 19.6009 67.176 19.6607C67.2358 19.7403 67.2956 19.7802 67.3754 19.82C67.4551 19.8599 67.5349 19.8599 67.6346 19.8599C67.7941 19.8599 67.9736 19.8399 68.153 19.7802C68.3325 19.7204 68.5319 19.6806 68.7113 19.6009C68.7711 19.581 68.831 19.5611 68.8708 19.5411C68.9107 19.5212 68.9506 19.5212 68.9705 19.5212C69.0104 19.5212 69.0503 19.5411 69.0702 19.581C69.0902 19.6208 69.1101 19.7005 69.1301 19.82C69.15 19.9395 69.1699 20.079 69.2098 20.2782C69.2497 20.4575 69.3095 20.6965 69.3893 20.9953C69.3893 21.0152 69.3893 21.0352 69.4092 21.0551C69.4092 21.075 69.4092 21.0949 69.4092 21.0949C69.4092 21.1547 69.3893 21.2144 69.3295 21.2344C69.2696 21.2543 69.1899 21.2941 69.0702 21.334C68.8708 21.3937 68.6515 21.4734 68.4322 21.5531C68.2128 21.6328 67.9736 21.6925 67.7542 21.7523C67.5349 21.812 67.3156 21.8519 67.1162 21.8917C66.9168 21.9316 66.7373 21.9515 66.5778 21.9515C65.7403 21.9515 65.1422 21.7523 64.7633 21.334C64.3845 20.9156 64.1851 20.2981 64.1851 19.4415C64.1851 19.3021 64.1851 19.1427 64.205 19.0033C64.2249 18.8439 64.2249 18.6846 64.2449 18.5252C64.2848 18.0272 64.3446 17.5491 64.3845 17.1109C64.4243 16.6726 64.4642 16.2344 64.5041 15.836H63.7265C63.4672 15.836 63.2678 15.816 63.1482 15.7961C63.0286 15.7762 62.9688 15.7364 62.9688 15.6567C62.9688 15.6367 62.9887 15.577 63.0485 15.4973C63.0884 15.4176 63.1681 15.2981 63.2479 15.1786C63.3277 15.0591 63.4074 14.9196 63.5071 14.7802C63.5869 14.6407 63.6866 14.5013 63.7663 14.3818C63.8461 14.2622 63.9258 14.1626 63.9857 14.063C64.0455 13.9834 64.0854 13.9236 64.1053 13.9037H64.6437C64.6836 13.5252 64.7234 13.2065 64.7434 12.9475C64.7633 12.6885 64.8032 12.4694 64.8032 12.3101C64.8231 12.1507 64.8431 12.0113 64.8431 11.9116C64.8431 11.812 64.8829 11.7523 64.8829 11.7124C64.9029 11.6726 64.9228 11.6328 64.9428 11.6328C64.9627 11.6128 65.0026 11.6128 65.0425 11.5929C65.2618 11.5531 65.4811 11.5132 65.7005 11.4734C65.8999 11.4336 66.1192 11.3937 66.3186 11.3539C66.518 11.314 66.7373 11.2742 66.9566 11.2144C67.176 11.1547 67.3953 11.0949 67.6346 11.0352C67.6545 11.0352 67.6545 11.0352 67.6545 11.0352H67.6745C67.7343 11.0352 67.7542 11.0551 67.7542 11.0949V11.1148C67.7343 11.3937 67.6944 11.7722 67.6346 12.2503C67.5748 12.7284 67.515 13.2862 67.4551 13.9037H69.4491C69.489 13.9037 69.5288 13.9236 69.5687 13.9435C69.6086 13.9634 69.6285 14.0232 69.6285 14.083C69.6285 14.1029 69.6086 14.2025 69.5488 14.3419C69.489 14.5013 69.4092 14.7005 69.2896 14.9395L69.0304 15.5371C68.9905 15.6168 68.9506 15.6567 68.9307 15.6965C68.8908 15.7364 68.811 15.7563 68.7113 15.7563H67.3156V15.8758Z" fill="white"/>
<path d="M70.5452 18.4649C70.605 17.7876 70.6848 17.1103 70.7446 16.433C70.8044 15.7757 70.8642 15.0785 70.924 14.3813C70.944 14.2219 70.944 14.1024 70.9639 14.0426C70.9839 13.9829 71.0437 13.943 71.1234 13.9231C71.5422 13.8434 71.9808 13.7438 72.4594 13.6641C72.918 13.5645 73.3766 13.445 73.7953 13.3056C73.8153 13.3056 73.8352 13.3056 73.8551 13.3056C73.915 13.3056 73.9349 13.3255 73.9349 13.3653L73.257 20.6362C73.237 20.7956 73.2171 20.9151 73.1971 20.9749C73.1772 21.0346 73.1174 21.0745 73.0376 21.0944C72.6189 21.2139 72.1802 21.3733 71.7615 21.5327C71.3228 21.692 70.8642 21.8514 70.3857 22.0107C70.3657 22.0107 70.3458 22.0107 70.3259 22.0107C70.266 22.0107 70.2461 21.9908 70.2461 21.9311C70.2461 21.9311 70.2461 21.8514 70.266 21.7319C70.286 21.6123 70.286 21.433 70.3059 21.2338C70.3259 21.0346 70.3458 20.7956 70.3657 20.5566C70.3857 20.2976 70.4056 20.0585 70.4256 19.7996C70.4455 19.5406 70.4654 19.3016 70.4854 19.0625C70.5053 18.8434 70.5252 18.6442 70.5452 18.4649ZM71.1035 12.5087C71.1234 12.2896 71.1234 12.1303 71.1434 12.0107C71.1434 11.8912 71.1633 11.8115 71.1633 11.7518C71.1633 11.692 71.1633 11.6522 71.1633 11.6522C71.1633 11.6323 71.1633 11.6323 71.1633 11.6123C71.1633 11.6123 71.1633 11.5924 71.1633 11.5725C71.1633 11.5526 71.1633 11.4928 71.1833 11.433C71.1833 11.3534 71.2032 11.2538 71.2032 11.1143C71.2231 10.9749 71.2231 10.7757 71.2431 10.5366C71.263 10.3773 71.263 10.2578 71.2829 10.198C71.3029 10.1382 71.3627 10.0984 71.4425 10.0785C71.8612 9.99879 72.2999 9.89918 72.7784 9.8195C73.257 9.73982 73.6956 9.60038 74.1144 9.46094C74.1343 9.46094 74.1542 9.46094 74.1742 9.46094C74.1941 9.48086 74.2141 9.5207 74.234 9.5207L74.2539 9.54062L74.0944 11.5924C74.0745 11.7518 74.0545 11.8713 74.0346 11.9311C74.0147 11.9908 73.9548 12.0307 73.8751 12.0506C73.4564 12.1303 73.0177 12.2099 72.599 12.3095C72.1603 12.4091 71.7017 12.4888 71.2231 12.5884C71.2032 12.5884 71.1833 12.5884 71.1633 12.5884C71.1234 12.5884 71.1035 12.5685 71.1035 12.5087Z" fill="white"/>
<path d="M79.0205 22.0325C78.3227 22.0325 77.7045 21.913 77.1662 21.6939C76.6278 21.4548 76.1891 21.156 75.8302 20.7775C75.4713 20.399 75.2121 19.9608 75.0326 19.4628C74.8532 18.9648 74.7734 18.4469 74.7734 17.9289C74.7734 17.3911 74.8532 16.8931 75.0326 16.415C75.2121 15.9369 75.4514 15.4986 75.7704 15.1202C76.0894 14.7417 76.4683 14.4229 76.907 14.164C77.3456 13.905 77.8242 13.7257 78.3625 13.6461C78.4423 13.6461 78.4822 13.6261 78.4822 13.5863C78.4822 13.5265 78.4822 13.4867 78.4622 13.4269C78.4423 13.3871 78.4423 13.3473 78.4423 13.3074C78.4423 13.2477 78.4622 13.2078 78.4622 13.1879C78.4822 13.168 78.5021 13.168 78.5221 13.168C79.4792 13.168 80.2767 13.2676 80.9547 13.4867C81.6127 13.7058 82.171 14.0046 82.5897 14.3632C83.0085 14.7417 83.3075 15.1799 83.5069 15.6779C83.6864 16.1759 83.7861 16.7337 83.7861 17.3114C83.7861 18.0484 83.6664 18.7058 83.4072 19.3034C83.168 19.8811 82.8091 20.3791 82.3903 20.7775C81.9517 21.1759 81.4532 21.4947 80.8749 21.6939C80.2767 21.913 79.6586 22.0325 79.0205 22.0325ZM77.6248 17.8293C77.6248 18.0883 77.6447 18.3672 77.7045 18.6261C77.7644 18.8851 77.8641 19.1241 77.9837 19.3433C78.1233 19.5624 78.2828 19.7218 78.5021 19.8612C78.7215 20.0006 78.9807 20.0604 79.2997 20.0604C79.519 20.0405 79.7384 20.0006 79.8979 19.901C80.0773 19.8014 80.2169 19.6819 80.3366 19.5425C80.4562 19.403 80.5559 19.2237 80.6556 19.0445C80.7353 18.8652 80.7952 18.666 80.855 18.4668C80.8949 18.2676 80.9347 18.0684 80.9547 17.8891C80.9746 17.7098 80.9746 17.5305 80.9746 17.3712C80.9746 17.1122 80.9347 16.8532 80.855 16.6142C80.7752 16.3552 80.6556 16.156 80.516 15.9568C80.3764 15.7576 80.177 15.6182 79.9577 15.4986C79.7384 15.3791 79.4792 15.3194 79.2 15.3194C78.9009 15.3194 78.6417 15.399 78.4423 15.5783C78.2429 15.7576 78.0834 15.9767 77.9438 16.2357C77.8242 16.4947 77.7245 16.7735 77.6846 17.0524C77.6647 17.3712 77.6248 17.6102 77.6248 17.8293Z" fill="white"/>
<path d="M90.9458 21.9114C90.886 21.9313 90.8262 21.9513 90.7265 21.9911C90.6467 22.0309 90.547 22.0309 90.4673 22.0309C90.3875 22.0309 90.3277 22.011 90.2878 21.9712C90.228 21.9313 90.2081 21.8716 90.2081 21.7919V21.7521C90.228 21.4931 90.2679 21.254 90.2878 21.0748C90.3078 20.8955 90.3277 20.7162 90.3476 20.5768C90.3676 20.4174 90.3875 20.278 90.3875 20.1186C90.4075 19.9592 90.4075 19.7999 90.4274 19.5807C90.4473 19.3815 90.4673 19.1425 90.5072 18.8636C90.5271 18.5847 90.567 18.2461 90.6068 17.8278C90.6268 17.5688 90.6467 17.3098 90.6667 17.0509C90.6866 16.7919 90.6866 16.5529 90.6866 16.3138C90.6866 16.1744 90.6667 16.0349 90.6467 15.8955C90.6268 15.776 90.5869 15.6564 90.5271 15.5768C90.4673 15.4772 90.3875 15.4174 90.2878 15.3576C90.1881 15.3178 90.0685 15.278 89.909 15.278C89.7893 15.278 89.6298 15.2979 89.4304 15.3576C89.231 15.4174 89.0316 15.4971 88.8322 15.5967C88.6328 15.7162 88.4534 15.8556 88.2939 16.0548C88.1343 16.2341 88.0546 16.4732 88.0347 16.7521C88.0147 17.1106 87.9748 17.4293 87.9549 17.6883C87.935 17.9473 87.915 18.1664 87.8951 18.3457C87.8751 18.525 87.8552 18.6843 87.8552 18.7839C87.8353 18.9035 87.8353 19.0031 87.8353 19.0827C87.8353 19.1027 87.8153 19.1624 87.8153 19.2421C87.8153 19.3218 87.7954 19.4413 87.7754 19.5608C87.7555 19.6803 87.7555 19.8198 87.7356 19.9592C87.7156 20.0987 87.7156 20.2381 87.6957 20.3576C87.6757 20.4772 87.6757 20.5967 87.6757 20.6764C87.6757 20.756 87.6558 20.8158 87.6558 20.8357C87.6558 20.8756 87.6558 20.9154 87.6558 20.9353C87.6558 20.9552 87.6558 20.9951 87.6558 21.015C87.6558 21.0548 87.6359 21.0947 87.596 21.1146C87.5561 21.1345 87.4763 21.1744 87.3368 21.2142L85.3628 21.8915C85.3029 21.9114 85.2431 21.9313 85.1434 21.9712C85.0637 21.9911 84.964 22.011 84.8842 22.011C84.8045 22.011 84.7446 21.9911 84.7048 21.9513C84.6449 21.9114 84.625 21.8517 84.625 21.772L85.3029 14.1425C85.3229 13.9831 85.3428 13.8636 85.3628 13.8038C85.3827 13.7441 85.4425 13.7042 85.5223 13.6843C85.9809 13.6046 86.4395 13.505 86.918 13.4054C87.3966 13.3058 87.8552 13.1863 88.3138 13.0469C88.3537 13.0469 88.3736 13.0469 88.3936 13.0668C88.3936 13.0867 88.4135 13.1066 88.4135 13.1266C88.4135 13.1465 88.4135 13.1465 88.4135 13.1664C88.4135 13.1863 88.3936 13.2262 88.3936 13.3058C88.3736 13.3855 88.3736 13.4851 88.3337 13.6246C88.3138 13.764 88.2739 13.9632 88.234 14.2222C88.573 14.023 88.8921 13.8636 89.2111 13.7441C89.5102 13.6246 89.7893 13.525 90.0685 13.4652C90.3277 13.4054 90.5869 13.3457 90.8262 13.3258C91.0655 13.3058 91.2848 13.2859 91.4842 13.2859C92.1821 13.2859 92.7005 13.505 93.0195 13.9234C93.3386 14.3417 93.4981 14.9791 93.4981 15.8357C93.4981 15.9552 93.4981 16.0748 93.4981 16.2142C93.4981 16.3337 93.4781 16.4732 93.4781 16.6126L93.1192 19.8397C93.0993 20.0389 93.0793 20.2381 93.0793 20.4174C93.0793 20.5967 93.0793 20.7959 93.0793 21.0349C93.0793 21.0748 93.0793 21.1146 93.0793 21.1345C93.0793 21.1544 93.0793 21.1943 93.0793 21.2142C93.0793 21.254 93.0594 21.2939 93.0195 21.3138C92.9796 21.3337 92.8999 21.3736 92.7603 21.4134L90.9458 21.9114Z" fill="white"/>
<path d="M95.5704 21.5327C95.4707 21.5128 95.4109 21.473 95.371 21.4132C95.3311 21.3535 95.3112 21.2937 95.3112 21.2339C95.3112 21.214 95.3112 21.214 95.3112 21.214V21.1941C95.351 20.6563 95.3909 20.0985 95.4507 19.5009C95.4906 18.9033 95.5504 18.3057 95.6103 17.708C95.6701 17.0905 95.71 16.4929 95.7698 15.8754C95.8296 15.2778 95.8695 14.6802 95.9293 14.1025C95.9093 14.1025 95.8495 14.1224 95.7698 14.1423C95.6701 14.1821 95.5704 14.2021 95.4507 14.2419C95.3311 14.2817 95.2115 14.3216 95.0918 14.3415C94.9722 14.3614 94.8725 14.3813 94.7927 14.3813C94.7329 14.3813 94.6731 14.3614 94.6532 14.3017C94.6332 14.2419 94.6133 14.2021 94.6133 14.1423C94.6133 14.1025 94.6133 14.0626 94.6332 14.0228C94.7728 13.6443 94.9124 13.2658 95.052 12.9272C95.1915 12.5885 95.3311 12.2499 95.4906 11.8913C95.8695 11.6921 96.2683 11.5128 96.667 11.3535C97.0658 11.1941 97.4846 11.0746 97.9033 10.975C98.322 10.8754 98.7408 10.7957 99.1395 10.7359C99.5583 10.6762 99.9571 10.6562 100.336 10.6562C100.874 10.6562 101.393 10.716 101.871 10.8355C102.35 10.9551 102.769 11.1144 103.127 11.3535C103.486 11.5925 103.766 11.8714 103.965 12.23C104.164 12.5885 104.284 12.9869 104.284 13.465C104.284 13.6642 104.244 13.8634 104.144 14.0626C104.065 14.2419 103.945 14.4411 103.805 14.6005C103.666 14.7798 103.506 14.9391 103.327 15.0786C103.147 15.218 102.988 15.3574 102.808 15.477C103.048 15.6562 103.267 15.8156 103.446 15.9551C103.646 16.0945 103.805 16.2539 103.945 16.3933C104.085 16.5527 104.184 16.712 104.244 16.9112C104.324 17.1104 104.344 17.3296 104.344 17.6084C104.344 18.0268 104.264 18.4252 104.124 18.8037C103.985 19.1821 103.785 19.5407 103.526 19.8594C103.267 20.1782 102.968 20.477 102.609 20.7359C102.25 20.9949 101.871 21.2339 101.472 21.4132C101.054 21.5925 100.635 21.7519 100.176 21.8515C99.7178 21.9511 99.2592 22.0108 98.8006 22.0108C98.6411 22.0108 98.4018 21.9909 98.1226 21.9511C97.8435 21.9112 97.5444 21.8714 97.2254 21.8315C96.9063 21.7917 96.6072 21.7319 96.3081 21.6722C96.029 21.6323 95.7698 21.5925 95.5704 21.5327ZM99 13.3455C98.9003 13.9232 98.8205 14.5208 98.7607 15.1383C98.7009 15.7359 98.6411 16.3335 98.6012 16.8913C98.5613 17.469 98.5214 18.0068 98.4815 18.5049C98.4417 19.0228 98.4018 19.481 98.3818 19.8794C98.5812 19.8794 98.8006 19.8594 99.0199 19.8395C99.2592 19.8196 99.4785 19.7798 99.7178 19.72C99.9371 19.6602 100.176 19.6005 100.396 19.5009C100.615 19.4212 100.795 19.3017 100.974 19.1821C101.133 19.0626 101.273 18.9033 101.373 18.724C101.472 18.5447 101.512 18.3455 101.512 18.1064C101.512 17.967 101.472 17.8475 101.393 17.728C101.313 17.6084 101.193 17.5288 101.074 17.4491C100.934 17.3694 100.795 17.3096 100.635 17.2499C100.475 17.1901 100.316 17.1503 100.176 17.1304C100.017 17.0905 99.8773 17.0706 99.7577 17.0507C99.638 17.0308 99.5383 17.0108 99.4785 17.0108C99.3988 17.0108 99.3589 16.971 99.3389 16.9312C99.319 16.8913 99.319 16.8515 99.319 16.7917C99.319 16.7319 99.3589 16.6323 99.4386 16.4929C99.5184 16.3535 99.6181 16.1941 99.7577 15.9551L100.077 15.457C100.216 15.3973 100.356 15.3375 100.515 15.2778C100.675 15.1981 100.814 15.1184 100.954 15.0188C101.094 14.9192 101.193 14.8196 101.293 14.7001C101.373 14.5806 101.433 14.4411 101.433 14.3017C101.433 13.9033 101.353 13.5845 101.173 13.3654C100.994 13.1463 100.735 13.0467 100.416 13.0467C99.977 13.0865 99.5184 13.1662 99 13.3455Z" fill="white"/>
<path d="M113.373 20.719C113.353 20.8783 113.334 20.9978 113.314 21.0576C113.294 21.1174 113.234 21.1572 113.154 21.1771C112.735 21.2966 112.297 21.4162 111.818 21.5357C111.36 21.6552 110.901 21.8146 110.482 22.0138C110.462 22.0138 110.442 22.0138 110.422 22.0138C110.382 22.0138 110.363 22.0138 110.343 21.9939C110.343 21.9739 110.323 21.954 110.323 21.9341C110.323 21.9341 110.323 21.9142 110.323 21.8743C110.323 21.8544 110.323 21.7946 110.343 21.7349C110.363 21.6751 110.363 21.5755 110.382 21.456C110.402 21.3365 110.422 21.1771 110.462 20.9779C109.904 21.3365 109.405 21.6154 108.987 21.7747C108.548 21.9341 108.169 22.0337 107.83 22.0337C106.993 22.0337 106.395 21.8345 106.016 21.4361C105.637 21.0377 105.438 20.4401 105.438 19.6433C105.438 19.5038 105.438 19.3444 105.438 19.205C105.438 19.0456 105.457 18.9062 105.477 18.7468C105.537 18.1692 105.577 17.6512 105.617 17.2329C105.657 16.8146 105.697 16.456 105.717 16.1572C105.737 15.8584 105.757 15.6193 105.776 15.4401C105.796 15.2608 105.816 15.1014 105.816 14.9819C105.836 14.8624 105.836 14.7628 105.836 14.6632C105.836 14.5835 105.856 14.5038 105.856 14.4241C105.876 14.2648 105.896 14.1452 105.916 14.0855C105.936 14.0257 105.996 13.9859 106.076 13.966C106.315 13.9261 106.534 13.8863 106.754 13.8464C106.973 13.8066 107.172 13.7668 107.372 13.7269C107.571 13.6871 107.79 13.6472 108.01 13.5875C108.229 13.5277 108.448 13.468 108.688 13.4082C108.708 13.4082 108.708 13.4082 108.708 13.4082C108.728 13.4082 108.728 13.4082 108.728 13.4082C108.787 13.4082 108.807 13.4281 108.807 13.468V13.4879C108.787 13.6672 108.767 13.8066 108.747 13.966C108.728 14.1253 108.728 14.2648 108.708 14.4241C108.688 14.5835 108.668 14.7429 108.668 14.9221C108.648 15.1014 108.628 15.3006 108.608 15.5397C108.588 15.7787 108.548 16.0576 108.528 16.3564C108.488 16.6552 108.448 17.0138 108.408 17.4321C108.389 17.7309 108.349 18.0297 108.329 18.3285C108.309 18.6273 108.289 18.9062 108.289 19.1452C108.289 19.2847 108.309 19.4042 108.309 19.5237C108.329 19.6433 108.369 19.7429 108.408 19.8225C108.468 19.9022 108.528 19.962 108.608 20.0217C108.688 20.0616 108.807 20.0815 108.927 20.0815C109.027 20.0815 109.166 20.0616 109.346 20.0018C109.525 19.9421 109.705 19.8624 109.884 19.7628C110.063 19.6433 110.223 19.4839 110.363 19.3046C110.502 19.1054 110.582 18.8664 110.602 18.5676C110.642 18.0695 110.662 17.6711 110.702 17.3325C110.721 16.9939 110.761 16.715 110.781 16.4958C110.801 16.2767 110.821 16.0775 110.841 15.9182C110.861 15.7588 110.861 15.6193 110.881 15.4799C110.901 15.3405 110.901 15.1811 110.921 15.0217C110.941 14.8624 110.941 14.6632 110.941 14.4042C110.961 14.2448 110.981 14.1253 111.001 14.0656C111.021 14.0058 111.08 13.966 111.16 13.946C111.619 13.8664 112.077 13.7668 112.556 13.6672C113.034 13.5676 113.493 13.448 113.952 13.3086C113.992 13.3086 114.011 13.3086 114.031 13.3285C114.031 13.3484 114.051 13.3684 114.051 13.3883L113.373 20.719Z" fill="white"/>
<path d="M123.348 20.8769C123.348 20.8968 123.348 20.8968 123.348 20.9167C123.348 20.9366 123.348 20.9366 123.348 20.9566C123.348 20.9765 123.348 20.9964 123.348 21.0163C123.348 21.0362 123.348 21.0362 123.348 21.0562C123.348 21.096 123.328 21.1358 123.308 21.1558C123.268 21.1757 123.188 21.2155 123.049 21.2554L121.055 21.9127C120.995 21.9327 120.935 21.9526 120.835 21.9924C120.756 22.0123 120.656 22.0323 120.576 22.0323C120.496 22.0323 120.436 22.0123 120.397 21.9725C120.337 21.9327 120.317 21.8729 120.317 21.7733C120.317 21.6936 120.317 21.6139 120.317 21.5542C120.317 21.4944 120.317 21.4546 120.317 21.3948C120.317 21.355 120.317 21.2952 120.337 21.2354C120.337 21.1757 120.357 21.1159 120.357 21.0163C119.978 21.3151 119.599 21.5542 119.2 21.7335C118.801 21.9127 118.383 21.9924 117.944 21.9924C117.466 21.9924 117.047 21.8729 116.668 21.6538C116.289 21.4347 115.99 21.1159 115.731 20.7374C115.472 20.359 115.292 19.9207 115.153 19.4227C115.013 18.9247 114.953 18.4267 114.953 17.8888C114.953 17.1916 115.073 16.5741 115.292 15.9964C115.511 15.4187 115.83 14.9406 116.209 14.5422C116.588 14.1438 117.047 13.8251 117.565 13.606C118.084 13.3868 118.642 13.2673 119.22 13.2673C119.539 13.2673 119.838 13.347 120.117 13.5064C120.397 13.6657 120.676 13.8849 120.935 14.1438C120.955 13.9048 120.975 13.6259 120.995 13.347C121.015 13.0681 121.035 12.7693 121.055 12.4705C121.075 12.1717 121.094 11.8729 121.114 11.594C121.134 11.2952 121.154 11.0362 121.174 10.7972C121.174 10.7574 121.194 10.7175 121.214 10.6976C121.254 10.6777 121.334 10.6378 121.473 10.598L123.567 10.1C123.627 10.0801 123.687 10.0602 123.786 10.0402C123.866 10.0004 123.966 9.98047 124.046 9.98047C124.105 9.98047 124.165 10.0004 124.225 10.0203C124.285 10.0402 124.305 10.1 124.305 10.1996C124.305 10.1996 124.305 10.2394 124.305 10.2594C124.305 10.2992 124.305 10.3191 124.305 10.3191L123.348 20.8769ZM120.736 17.3908C120.756 17.2315 120.775 17.0721 120.775 16.8928C120.795 16.7135 120.815 16.5343 120.835 16.355C120.716 16.0562 120.556 15.8171 120.357 15.6179C120.157 15.4386 119.878 15.339 119.579 15.339C119.28 15.339 119.001 15.4187 118.801 15.598C118.582 15.7773 118.423 15.9964 118.283 16.2554C118.143 16.5143 118.064 16.7932 118.004 17.0721C117.944 17.351 117.924 17.61 117.924 17.8291C117.924 18.088 117.944 18.3669 117.964 18.6259C118.004 18.8849 118.044 19.1239 118.124 19.343C118.203 19.5621 118.283 19.7215 118.403 19.8609C118.522 20.0004 118.662 20.0601 118.841 20.0601C119.28 20.0402 119.639 19.9406 119.918 19.7613C120.197 19.5821 120.417 19.3629 120.576 19.0841L120.736 17.3908Z" fill="white"/>
<path d="M133.293 20.8769C133.293 20.8968 133.293 20.8968 133.293 20.9167C133.293 20.9366 133.293 20.9366 133.293 20.9566C133.293 20.9765 133.293 20.9964 133.293 21.0163C133.293 21.0362 133.293 21.0362 133.293 21.0562C133.293 21.096 133.273 21.1358 133.253 21.1558C133.213 21.1757 133.133 21.2155 132.994 21.2554L131 21.9127C130.94 21.9327 130.88 21.9526 130.781 21.9924C130.701 22.0123 130.601 22.0323 130.521 22.0323C130.442 22.0323 130.382 22.0123 130.342 21.9725C130.282 21.9327 130.262 21.8729 130.262 21.7733C130.262 21.6936 130.262 21.6139 130.262 21.5542C130.262 21.4944 130.262 21.4546 130.262 21.3948C130.262 21.355 130.262 21.2952 130.282 21.2354C130.282 21.1757 130.302 21.1159 130.302 21.0163C129.923 21.3151 129.544 21.5542 129.146 21.7335C128.747 21.9127 128.328 21.9924 127.889 21.9924C127.411 21.9924 126.992 21.8729 126.613 21.6538C126.234 21.4347 125.935 21.1159 125.676 20.7374C125.417 20.359 125.237 19.9207 125.098 19.4227C124.958 18.9247 124.898 18.4267 124.898 17.8888C124.898 17.1916 125.018 16.5741 125.237 15.9964C125.457 15.4187 125.776 14.9406 126.155 14.5422C126.533 14.1438 126.992 13.8251 127.511 13.606C128.029 13.3868 128.587 13.2673 129.165 13.2673C129.485 13.2673 129.784 13.347 130.063 13.5064C130.342 13.6657 130.621 13.8849 130.88 14.1438C130.9 13.9048 130.92 13.6259 130.94 13.347C130.96 13.0681 130.98 12.7693 131 12.4705C131.02 12.1717 131.04 11.8729 131.06 11.594C131.08 11.2952 131.1 11.0362 131.12 10.7972C131.12 10.7574 131.139 10.7175 131.159 10.6976C131.199 10.6777 131.279 10.6378 131.419 10.598L133.512 10.1C133.572 10.0801 133.632 10.0602 133.732 10.0402C133.811 10.0004 133.911 9.98047 133.991 9.98047C134.051 9.98047 134.11 10.0004 134.17 10.0203C134.23 10.0402 134.25 10.1 134.25 10.1996C134.25 10.1996 134.25 10.2394 134.25 10.2594C134.25 10.2992 134.25 10.3191 134.25 10.3191L133.293 20.8769ZM130.701 17.3908C130.721 17.2315 130.741 17.0721 130.741 16.8928C130.761 16.7135 130.781 16.5343 130.801 16.355C130.681 16.0562 130.521 15.8171 130.322 15.6179C130.123 15.4386 129.843 15.339 129.544 15.339C129.245 15.339 128.966 15.4187 128.767 15.598C128.547 15.7773 128.388 15.9964 128.248 16.2554C128.109 16.5143 128.029 16.7932 127.969 17.0721C127.909 17.351 127.889 17.61 127.889 17.8291C127.889 18.088 127.909 18.3669 127.929 18.6259C127.969 18.8849 128.009 19.1239 128.089 19.343C128.169 19.5621 128.248 19.7215 128.368 19.8609C128.488 20.0004 128.627 20.0601 128.807 20.0601C129.245 20.0402 129.604 19.9406 129.883 19.7613C130.162 19.5821 130.382 19.3629 130.541 19.0841L130.701 17.3908Z" fill="white"/>
<path d="M138.081 25.0413C138.061 25.0612 138.061 25.0811 138.041 25.0811C138.022 25.101 138.002 25.101 137.982 25.101C137.962 25.101 137.922 25.101 137.922 25.101C137.742 25.0413 137.583 24.9815 137.423 24.9417C137.264 24.9018 137.104 24.862 136.945 24.8221C136.785 24.7823 136.626 24.7425 136.466 24.7225C136.307 24.6827 136.127 24.6628 135.948 24.6229C135.908 24.603 135.868 24.603 135.828 24.5831C135.808 24.5632 135.788 24.5233 135.788 24.4636C135.788 24.4437 135.788 24.4038 135.808 24.364C135.828 24.3042 135.868 24.1847 135.948 24.0054C136.028 23.8261 136.127 23.5672 136.267 23.2285C136.406 22.8899 136.606 22.4317 136.865 21.8739C136.785 21.615 136.706 21.3162 136.606 20.9775C136.506 20.6389 136.406 20.2405 136.307 19.8421C136.207 19.4237 136.087 18.9855 135.968 18.5273C135.848 18.0692 135.728 17.611 135.629 17.1329C135.509 16.6548 135.39 16.1967 135.27 15.7385C135.15 15.2803 135.031 14.8421 134.931 14.4237C134.891 14.3441 134.871 14.2843 134.871 14.2245C134.871 14.1648 134.871 14.1249 134.871 14.0851C134.871 14.0253 134.911 13.9656 134.991 13.9457C135.37 13.866 135.788 13.7664 136.207 13.6867C136.626 13.5871 137.025 13.4676 137.403 13.3281C137.423 13.3281 137.443 13.3281 137.463 13.3281C137.523 13.3281 137.563 13.348 137.563 13.4078L138.48 18.4277C138.5 18.368 138.54 18.2684 138.6 18.109C138.66 17.9496 138.719 17.7704 138.799 17.5512C138.879 17.3321 138.959 17.0931 139.058 16.8341C139.158 16.5751 139.258 16.2963 139.357 16.0373C139.457 15.7584 139.557 15.4994 139.657 15.2206C139.756 14.9417 139.836 14.7026 139.936 14.4636C140.015 14.2245 140.095 14.0253 140.155 13.8461C140.215 13.6668 140.275 13.5273 140.295 13.4476C140.315 13.3879 140.354 13.368 140.414 13.368C140.434 13.368 140.434 13.368 140.434 13.368H140.454C140.833 13.5074 141.212 13.6269 141.611 13.7265C142.009 13.8261 142.388 13.9058 142.787 13.9855C142.887 14.0054 142.927 14.0652 142.927 14.1449C142.927 14.2046 142.907 14.3042 142.847 14.4437L139.776 21.3959L138.081 25.0413Z" fill="white"/>
<path d="M7.33541 15.4785C8.01335 16.6937 8.73117 17.9686 8.81093 18.108C8.95051 18.3471 9.07015 18.5463 9.16984 18.7056C9.18978 18.7455 9.20972 18.7654 9.2496 18.7853C9.28948 18.8052 9.30942 18.8252 9.3493 18.8252C9.38918 18.8252 9.42906 18.8252 9.46894 18.8052C9.48887 18.8052 9.50881 18.7853 9.50881 18.7853C9.52875 18.7853 9.52875 18.7654 9.54869 18.7654C9.84779 18.5662 10.1269 18.4068 10.4061 18.2674C10.6852 18.108 10.9644 17.9885 11.2436 17.8491C11.2834 17.8291 11.3432 17.8092 11.3632 17.7694C11.4031 17.7295 11.4429 17.6897 11.4828 17.6299C11.5028 17.5901 11.5227 17.5303 11.5426 17.4706C11.5626 17.4108 11.5626 17.351 11.5825 17.2714L13.6961 6.41479C13.716 6.27535 13.716 6.17575 13.6961 6.09607C13.6562 5.95663 13.5366 5.85702 13.3771 5.85702C13.2176 5.85702 12.9982 5.87695 12.7789 5.89687C12.5396 5.91679 12.2804 5.93671 12.1209 5.95663C11.9414 5.95663 11.6423 5.89687 11.3831 5.85702C11.2236 5.81718 11.0641 5.79726 10.9445 5.77734C10.9245 5.77734 10.9245 5.77734 10.9046 5.77734C10.8846 5.77734 10.8448 5.77734 10.8448 5.77734C10.7251 5.79726 10.6454 5.89687 10.6454 5.99647L10.6055 6.33511C10.5855 6.41479 10.3263 9.0642 10.0671 11.614C9.92754 12.9088 9.80791 14.1638 9.72815 14.8809L8.27257 11.7933C8.23269 11.6937 8.13299 11.614 7.97347 11.6538C7.93359 11.6738 7.89372 11.6738 7.87378 11.6937C7.61456 11.873 7.33541 12.0323 7.05626 12.1917L6.17892 12.6299C6.05928 12.6897 5.99946 12.8291 6.0194 12.9487C6.03934 13.0084 6.07922 13.108 6.15898 13.2275C6.19886 13.4068 6.75716 14.4028 7.33541 15.4785Z" fill="white"/>
<path d="M16.7719 14.2617C17.2305 15.178 17.6094 15.935 17.6493 16.0147C17.7689 16.2736 17.8886 16.4728 17.9683 16.6322C17.9883 16.672 18.0082 16.692 18.0481 16.7318C18.0879 16.7517 18.1278 16.7716 18.1677 16.7716C18.2076 16.7716 18.2275 16.7716 18.2674 16.7716C18.2873 16.7716 18.3073 16.7716 18.3073 16.7517C18.3272 16.7517 18.3272 16.7517 18.3472 16.7318C18.6463 16.5724 18.9453 16.4131 19.2245 16.2936C19.5037 16.174 19.8027 16.0545 20.0819 15.935C20.1417 15.9151 20.1816 15.8952 20.2015 15.8752C20.2414 15.8354 20.3012 15.7956 20.3212 15.7358C20.3411 15.696 20.3611 15.6362 20.381 15.5764C20.4009 15.5167 20.4209 15.4569 20.4408 15.3772L23.3121 4.69993C23.352 4.56049 23.352 4.46089 23.352 4.38121C23.332 4.22185 23.2124 4.14217 23.0529 4.12225C22.7139 4.10233 20.9194 3.92304 20.5804 3.86328C20.5604 3.86328 20.5206 3.86328 20.5206 3.86328C20.4009 3.8832 20.3212 3.96288 20.3012 4.0824L20.2414 4.42105C20.2215 4.50073 19.723 7.38918 19.2843 9.91906C19.065 11.1541 18.8656 12.2896 18.7659 12.927L17.1109 9.12225C17.091 9.02264 16.9713 8.92304 16.8118 8.94296C16.7719 8.94296 16.7321 8.96288 16.6922 8.9828C16.433 9.14217 16.1339 9.28161 15.8348 9.42105L14.9176 9.79954C14.778 9.8593 14.7182 9.97882 14.7381 10.1183C14.7581 10.1979 14.778 10.2776 14.8578 10.4171C14.9774 10.6362 15.9943 12.7079 16.7719 14.2617Z" fill="white"/>
<path d="M28.4937 12.2519C28.4937 12.1125 28.4339 11.973 28.3342 11.8933C28.2345 11.7937 28.1149 11.7539 27.9753 11.7539L26.0811 11.7738C25.8218 11.7738 25.6025 11.9929 25.6025 12.2718C25.6224 16.4153 23.3892 19.9212 19.521 21.8933C14.9947 24.1842 11.7246 23.8655 9.77055 23.1882C7.67691 22.471 6.00199 20.977 5.10471 19.0049C5.04489 18.8854 4.94519 18.7858 4.82556 18.7459C4.70592 18.7061 4.58628 18.7061 4.46665 18.7659L2.75185 19.5627C2.63221 19.6224 2.53252 19.722 2.49264 19.8416C2.45276 19.9611 2.45276 20.1204 2.51258 20.24C3.25034 21.8137 5.54338 24.8017 9.33188 26.1364C10.289 26.475 11.266 26.6742 12.2829 26.7539C14.7355 26.9531 17.3476 26.3754 20.0793 25.0607C25.104 22.6503 28.4738 17.491 28.4937 12.2519Z" fill="white"/>
</svg>
