<svg width="160" height="146" viewBox="0 0 160 146" fill="none" xmlns="http://www.w3.org/2000/svg">
<path d="M2.4601 42.648C4.70836 42.1096 7.0116 41.8343 9.32343 41.8279C15.0339 41.5865 20.6069 43.6201 24.8199 47.4826C26.8828 49.5078 28.4921 51.9481 29.5414 54.6418C30.5906 57.3356 31.0558 60.2215 30.9062 63.1085V100.404C30.9201 100.8 30.8546 101.195 30.7138 101.565C30.573 101.936 30.3596 102.275 30.0861 102.562C29.799 102.835 29.4603 103.049 29.0897 103.19C28.7191 103.33 28.324 103.396 27.9278 103.382H23.6113C23.215 103.396 22.82 103.33 22.4494 103.19C22.0788 103.049 21.74 102.835 21.453 102.562C21.1795 102.275 20.9661 101.936 20.8253 101.565C20.6844 101.195 20.619 100.8 20.6328 100.404V62.72C20.8153 61.2029 20.6497 59.6642 20.1486 58.2207C19.6474 56.7771 18.824 55.4668 17.7407 54.3891C15.3469 52.524 12.3517 51.6024 9.32343 51.7991C7.55428 51.7764 5.78806 51.9502 4.05723 52.3171C3.2594 52.4996 2.4218 52.36 1.72628 51.9286C1.42689 51.7054 1.1793 51.4202 1.00048 51.0923C0.821667 50.7645 0.715858 50.4019 0.69031 50.0293L-0.000341415 46.1444V45.8423C-0.00349808 45.0946 0.23917 44.3666 0.69031 43.7703C1.11622 43.185 1.749 42.7837 2.4601 42.648Z" fill="white"/>
<path d="M159.723 43.8146C159.485 43.5448 159.193 43.3283 158.866 43.1795C158.539 43.0307 158.183 42.9529 157.824 42.9513H152.601C151.918 42.9464 151.245 43.1238 150.653 43.4653C150.062 43.8067 149.572 44.2998 149.234 44.8937L129.809 88.9227L110.514 45.0232C110.189 44.4505 109.718 43.9735 109.15 43.6401C108.582 43.3067 107.936 43.1287 107.277 43.1239H102.14C101.781 43.1256 101.425 43.2034 101.098 43.3522C100.771 43.501 100.479 43.7174 100.241 43.9872C99.8788 44.373 99.678 44.8827 99.6797 45.4117C99.6876 45.8048 99.7914 46.1901 99.9819 46.534L124.241 101.786L107.622 140.203C107.474 140.551 107.397 140.926 107.397 141.304C107.397 141.682 107.474 142.057 107.622 142.405C107.764 142.762 107.979 143.085 108.254 143.353C108.53 143.621 108.858 143.827 109.219 143.959L113.277 145.642C113.614 145.848 114.004 145.953 114.399 145.944C114.923 145.908 115.431 145.749 115.881 145.479C116.331 145.209 116.711 144.836 116.989 144.39L159.723 46.4045C159.88 46.0501 159.967 45.6693 159.982 45.2822C160.044 44.7781 159.954 44.267 159.723 43.8146Z" fill="white"/>
<path d="M92.1126 49.8141L90.8608 51.0228L92.1126 49.8141C89.2153 46.9397 85.759 44.6904 81.9575 43.2054C78.156 41.7205 74.0902 41.0315 70.0118 41.181C66.0147 41.0644 62.0363 41.7706 58.3236 43.2557C54.6108 44.7408 51.2429 46.9731 48.429 49.8141V3.02261C48.4437 2.61976 48.3789 2.21794 48.2382 1.84018C48.0975 1.46242 47.8836 1.11614 47.6088 0.821162C47.0081 0.27423 46.2195 -0.0195931 45.4074 0.00101519H41.0908C40.306 -0.010689 39.5474 0.283446 38.9757 0.821162C38.687 1.10818 38.4612 1.45211 38.3125 1.8311C38.1639 2.21009 38.0957 2.61586 38.1124 3.02261V72.9509C37.9239 77.244 38.6155 81.5304 40.1447 85.5463C41.6738 89.5623 44.0083 93.2231 47.0045 96.3035L48.17 95.1381L46.9613 96.3467C49.9179 99.2256 53.4275 101.475 57.2782 102.959C61.1288 104.443 65.2404 105.13 69.3643 104.98C73.4913 105.108 77.6008 104.389 81.4391 102.867C85.2774 101.345 88.7631 99.0524 91.6809 96.1309C94.6758 93.0832 97.0139 89.4538 98.5507 85.4669C100.088 81.48 100.791 77.2202 100.616 72.9509C100.809 68.7226 100.157 64.4983 98.6963 60.5255C97.2362 56.5526 94.9979 52.911 92.1126 49.8141ZM86.0262 90.3467L85.6377 89.9582L84.7744 89.1812C82.7944 91.2266 80.3969 92.8212 77.7451 93.8566C75.0933 94.892 72.2495 95.3438 69.4074 95.1812C66.5721 95.3403 63.7359 94.8868 61.0916 93.8514C58.4473 92.8161 56.0571 91.2232 54.0836 89.1812C50.1848 84.7491 48.1577 78.9771 48.429 73.0804C48.0888 67.0846 50.0845 61.1902 53.9973 56.6343C55.9911 54.598 58.3983 53.0126 61.0565 51.985C63.7147 50.9575 66.5623 50.5116 69.4074 50.6775C72.2528 50.5088 75.1013 50.9533 77.7599 51.981C80.4186 53.0088 82.8254 54.5957 84.8176 56.6343L86.0694 55.4688L84.8607 56.6343C88.8051 61.1744 90.8189 67.0762 90.4723 73.0804C90.7345 78.9758 88.7085 84.7444 84.8176 89.1812L86.0694 90.3467H86.0262ZM90.3428 95.0517L90.6018 95.2675L90.3428 95.0517Z" fill="white"/>
</svg>
