<svg width="95" height="28" viewBox="0 0 95 28" fill="none" xmlns="http://www.w3.org/2000/svg">
<mask id="mask0_596_1747" style="mask-type:luminance" maskUnits="userSpaceOnUse" x="0" y="3" width="95" height="22">
<path d="M95 3.04297H0V24.956H95V3.04297Z" fill="white"/>
</mask>
<g mask="url(#mask0_596_1747)">
<path d="M28.3242 20.611V6.3125H31.8392V12.0319H39.1034V6.3125H42.6183V20.611H39.1034V15.2348H31.8392V20.611H28.3242Z" fill="white"/>
<path d="M44.9688 16.0335V8.94141H48.2494V15.5759C48.2494 16.43 48.4603 17.0859 48.8821 17.5434C49.3195 17.9857 49.9288 18.2069 50.7099 18.2069C51.491 18.2069 52.1549 17.9171 52.7017 17.3375C53.2485 16.758 53.5218 16.0182 53.5218 15.1184V8.94141H56.8024V20.609H53.5218V19.0076H53.4047C53.2172 19.3584 52.9282 19.6863 52.5377 19.9913C51.6941 20.6319 50.7333 20.9522 49.6554 20.9522C48.1713 20.9522 47.0152 20.5327 46.1873 19.6939C45.3749 18.8551 44.9688 17.6349 44.9688 16.0335Z" fill="white"/>
<path d="M58.0938 16.8336H61.4918C61.6009 17.1082 61.7725 17.3598 62.0073 17.5886C62.5068 18.0766 63.1945 18.3207 64.0691 18.3207C65.3972 18.3207 66.061 17.9394 66.061 17.1768C66.061 17.0548 66.0297 16.948 65.9672 16.8565C65.9047 16.7497 65.7956 16.6582 65.6393 16.582C65.483 16.4905 65.3347 16.4142 65.1937 16.3532C65.0534 16.2922 64.8426 16.2312 64.5612 16.1702C64.2958 16.0939 64.077 16.0405 63.9054 16.01C63.7491 15.9796 63.4911 15.9262 63.1319 15.8499C62.7881 15.7736 62.538 15.7202 62.3817 15.6898C59.9137 15.1712 58.6796 13.9892 58.6796 12.1437C58.6796 11.1676 59.1248 10.3364 60.0153 9.65003C60.9213 8.94845 62.1556 8.59766 63.7179 8.59766C65.8109 8.59766 67.3812 9.23064 68.4274 10.4965C68.881 11.0456 69.1856 11.6709 69.3419 12.3725H66.061C65.9519 12.1437 65.8109 11.9531 65.6393 11.8006C65.1551 11.4193 64.5146 11.2286 63.7179 11.2286C63.1552 11.2286 62.7415 11.3201 62.4755 11.5031C62.2101 11.6709 62.0771 11.8844 62.0771 12.1437C62.0771 12.2352 62.0931 12.3267 62.1243 12.4183C62.1709 12.4945 62.2414 12.5707 62.3352 12.647C62.4289 12.7081 62.5227 12.769 62.6165 12.83C62.7103 12.8758 62.8427 12.9292 63.0149 12.9902C63.1865 13.036 63.3348 13.0817 63.4598 13.1274C63.6008 13.1732 63.7804 13.2189 63.9986 13.2647C64.2174 13.3105 64.4049 13.3486 64.5612 13.3791C64.7175 13.4096 64.9204 13.4554 65.1705 13.5164C65.4205 13.5621 65.6234 13.6003 65.7797 13.6308C68.2325 14.1645 69.4589 15.3466 69.4589 17.1768C69.4589 18.1987 68.9747 19.0833 68.0057 19.8306C67.0374 20.5779 65.7251 20.9516 64.0691 20.9516C61.851 20.9516 60.2105 20.2653 59.1483 18.8926C58.6639 18.2673 58.3124 17.581 58.0938 16.8336Z" fill="white"/>
<path d="M70.875 20.611V6.3125H74.1559V13.2902H75.5619L78.7251 8.9434H82.3571L78.4909 14.3196L82.7089 20.611H78.9592L75.9131 16.0355H74.1559V20.611H70.875Z" fill="white"/>
<path d="M82.3477 8.94141H85.7456L88.0887 17.8637H89.0265L91.6037 8.94141H95.0017L90.1977 24.9558H86.8004L88.0887 20.609H85.5115L82.3477 8.94141Z" fill="white"/>
<path d="M7.00933 3.36916C7.00933 3.36916 6.67555 3.04296 6.17493 3.04297C5.52714 3.04297 5.04847 3.46335 4.60656 4.14244C1.90414 8.3301 -0.0168844 17.3792 0.00011189 17.3953L11.0146 7.12038L7.00933 3.36916Z" fill="white" fill-opacity="0.7"/>
<path d="M15.0209 3.36916C15.0209 3.36916 15.3547 3.04297 15.8554 3.04297C16.5031 3.04297 16.9817 3.46335 17.4237 4.14244C20.1261 8.3301 22.0471 17.3792 22.0301 17.3953L11.0156 7.12038L15.0209 3.36916Z" fill="white" fill-opacity="0.5"/>
<path d="M11.0154 7.12109L0.00091157 17.3961C-0.0825196 17.8854 5.58034 22.3575 9.05182 24.0867C9.60564 24.3604 10.3968 24.5672 11.0154 24.5722C11.6382 24.5773 12.4299 24.3785 12.979 24.0867C16.4505 22.3575 22.1133 17.8854 22.0299 17.3961L11.0154 7.12109Z" fill="white" fill-opacity="0.5"/>
</g>
</svg>
