<svg width="77" height="34" viewBox="0 0 77 34" fill="none" xmlns="http://www.w3.org/2000/svg">
<path d="M0.571633 9.88001C1.09248 9.75527 1.62606 9.69151 2.16163 9.69001C3.48455 9.6341 4.77563 10.1052 5.75163 11C6.22954 11.4692 6.60236 12.0345 6.84544 12.6586C7.08851 13.2826 7.19628 13.9512 7.16163 14.62V23.26C7.16484 23.3518 7.14968 23.4433 7.11705 23.5292C7.08443 23.615 7.03499 23.6935 6.97163 23.76C6.90513 23.8234 6.82665 23.8728 6.74079 23.9054C6.65493 23.9381 6.56343 23.9532 6.47163 23.95H5.47163C5.37984 23.9532 5.28833 23.9381 5.20247 23.9054C5.11662 23.8728 5.03813 23.8234 4.97163 23.76C4.90828 23.6935 4.85884 23.615 4.82621 23.5292C4.79359 23.4433 4.77843 23.3518 4.78163 23.26V14.53C4.8239 14.1786 4.78554 13.8221 4.66944 13.4877C4.55335 13.1532 4.36259 12.8497 4.11163 12.6C3.55706 12.1679 2.86318 11.9544 2.16163 12C1.75178 11.9948 1.34261 12.035 0.941634 12.12C0.756805 12.1623 0.562762 12.1299 0.401633 12.03C0.332274 11.9783 0.274915 11.9122 0.23349 11.8363C0.192065 11.7603 0.167552 11.6763 0.161633 11.59L0.00163364 10.69V10.62C0.000902176 10.4468 0.0571198 10.2781 0.161633 10.14C0.260303 10.0044 0.406897 9.91144 0.571633 9.88001Z" fill="white"/>
<path d="M51.6361 20.2112C51.3787 20.2071 51.1232 20.2546 50.8845 20.3508C50.6458 20.4469 50.4287 20.5899 50.2461 20.7712C50.0616 20.952 49.9159 21.1685 49.8178 21.4074C49.7198 21.6464 49.6716 21.9029 49.6761 22.1612C49.6726 22.4163 49.7213 22.6695 49.8194 22.9051C49.9174 23.1407 50.0626 23.3538 50.2461 23.5312C50.4242 23.716 50.6378 23.863 50.8741 23.9633C51.1103 24.0637 51.3644 24.1155 51.6211 24.1155C51.8778 24.1155 52.1318 24.0637 52.3681 23.9633C52.6043 23.863 52.8179 23.716 52.9961 23.5312L52.7161 23.2512L52.9961 23.5312C53.1784 23.3516 53.3232 23.1376 53.422 22.9015C53.5208 22.6654 53.5717 22.4121 53.5717 22.1562C53.5717 21.9003 53.5208 21.6469 53.422 21.4109C53.3232 21.1748 53.1784 20.9608 52.9961 20.7812C52.8181 20.6012 52.6064 20.4582 52.373 20.3604C52.1396 20.2626 51.8891 20.2119 51.6361 20.2112Z" fill="white"/>
<path d="M52.0077 10.1492C51.9526 10.0867 51.8849 10.0366 51.8091 10.0021C51.7332 9.96765 51.651 9.94963 51.5677 9.94924H50.3577C50.1994 9.94811 50.0437 9.98921 49.9065 10.0683C49.7694 10.1474 49.6559 10.2616 49.5777 10.3992L45.0777 20.5992L40.6077 10.4292C40.5322 10.2966 40.4232 10.1861 40.2916 10.1088C40.1599 10.0316 40.0103 9.99035 39.8577 9.98924H38.6677C38.5844 9.98963 38.5021 10.0076 38.4262 10.0421C38.3504 10.0766 38.2827 10.1267 38.2277 10.1892C38.1438 10.2786 38.0973 10.3967 38.0977 10.5192C38.0995 10.6103 38.1235 10.6996 38.1677 10.7792L43.7877 23.5792L39.9377 32.4792C39.9033 32.5599 39.8856 32.6466 39.8856 32.7342C39.8856 32.8219 39.9033 32.9086 39.9377 32.9892C39.9704 33.072 40.0203 33.1468 40.0841 33.2089C40.1479 33.2709 40.2241 33.3188 40.3077 33.3492L41.2477 33.7392C41.3259 33.7869 41.4161 33.8112 41.5077 33.8092C41.629 33.8009 41.7466 33.7639 41.8509 33.7013C41.9552 33.6388 42.0432 33.5524 42.1077 33.4492L52.0077 10.7492C52.0439 10.6671 52.0643 10.5789 52.0677 10.4892C52.082 10.3725 52.0611 10.2541 52.0077 10.1492Z" fill="white"/>
<path d="M21.6465 9.931H20.6465C20.5544 9.92513 20.462 9.93896 20.3757 9.97156C20.2893 10.0042 20.2108 10.0548 20.1456 10.1201C20.0803 10.1853 20.0297 10.2638 19.9971 10.3502C19.9645 10.4365 19.9506 10.5289 19.9565 10.621V17.331C19.9629 18.0079 19.8686 18.6819 19.6765 19.331C19.5413 19.8288 19.3141 20.2969 19.0065 20.711C18.7251 21.0395 18.3863 21.314 18.0065 21.521L18.1965 21.861L17.9965 21.511C17.6475 21.7133 17.2699 21.8617 16.8765 21.951L16.9565 22.351V22.271L16.8365 22.001C16.4552 22.082 16.0663 22.1222 15.6765 22.121C15.2801 22.1222 14.8846 22.082 14.4965 22.001C14.0997 21.9126 13.7186 21.7642 13.3665 21.561L13.1765 21.911L13.3665 21.561C12.985 21.3565 12.6457 21.0817 12.3665 20.751C12.0513 20.3499 11.8169 19.8914 11.6765 19.401C11.4844 18.7519 11.3901 18.0779 11.3965 17.401V10.621C11.4024 10.4375 11.3381 10.2586 11.2165 10.121C11.0816 9.99398 10.9017 9.92565 10.7165 9.931H9.7165C9.62436 9.92513 9.53203 9.93896 9.44566 9.97156C9.35928 10.0042 9.28085 10.0548 9.21556 10.1201C9.15028 10.1853 9.09966 10.2638 9.06706 10.3502C9.03446 10.4365 9.02063 10.5289 9.0265 10.621V17.331C8.96507 18.2749 9.09556 19.2214 9.41008 20.1134C9.72461 21.0054 10.2167 21.8244 10.8565 22.521L11.1365 22.241L11.0765 22.301L10.8565 22.521C11.4937 23.1372 12.2496 23.6172 13.0782 23.9318C13.9069 24.2465 14.7909 24.3891 15.6765 24.351C16.5622 24.3902 17.4466 24.2482 18.2754 23.9335C19.1042 23.6188 19.86 23.1382 20.4965 22.521C21.1381 21.8252 21.632 21.0066 21.9483 20.1145C22.2645 19.2225 22.3966 18.2755 22.3365 17.331V10.621C22.3424 10.5289 22.3285 10.4365 22.2959 10.3502C22.2633 10.2638 22.2127 10.1853 22.1474 10.1201C22.0822 10.0548 22.0037 10.0042 21.9173 9.97156C21.831 9.93896 21.7386 9.92513 21.6465 9.931Z" fill="white"/>
<path d="M36.3452 11.5402L36.0552 11.8202L36.3452 11.5402C35.674 10.8743 34.8733 10.3532 33.9926 10.0092C33.1119 9.66521 32.17 9.50559 31.2252 9.54024C30.2992 9.51322 29.3775 9.67681 28.5174 10.0209C27.6573 10.3649 26.8771 10.8821 26.2252 11.5402V0.700235C26.2286 0.606908 26.2136 0.513821 26.181 0.426307C26.1484 0.338793 26.0988 0.258571 26.0352 0.190235C25.896 0.0635297 25.7133 -0.00453905 25.5252 0.000235185H24.5252C24.3433 -0.00247627 24.1676 0.0656646 24.0352 0.190235C23.9683 0.256728 23.916 0.336405 23.8815 0.424204C23.8471 0.512003 23.8313 0.606005 23.8352 0.700235V16.9002C23.7915 17.8948 23.9517 18.8878 24.306 19.8182C24.6602 20.7485 25.201 21.5966 25.8952 22.3102L26.1652 22.0402L25.8852 22.3202C26.5701 22.9872 27.3832 23.5083 28.2752 23.852C29.1673 24.1958 30.1198 24.3551 31.0752 24.3202C32.0312 24.3499 32.9833 24.1833 33.8725 23.8307C34.7617 23.4781 35.5692 22.947 36.2452 22.2702C36.939 21.5642 37.4806 20.7234 37.8367 19.7998C38.1927 18.8761 38.3555 17.8893 38.3152 16.9002C38.3599 15.9207 38.2087 14.9421 37.8704 14.0217C37.5321 13.1013 37.0136 12.2577 36.3452 11.5402ZM34.9352 20.9302L34.8452 20.8402L34.6452 20.6602C34.1865 21.1341 33.631 21.5035 33.0167 21.7434C32.4024 21.9832 31.7436 22.0879 31.0852 22.0502C30.4283 22.0871 29.7712 21.982 29.1586 21.7422C28.5461 21.5023 27.9923 21.1333 27.5352 20.6602C26.6319 19.6335 26.1623 18.2963 26.2252 16.9302C26.1463 15.5412 26.6087 14.1757 27.5152 13.1202C27.9771 12.6485 28.5347 12.2812 29.1505 12.0432C29.7663 11.8051 30.426 11.7018 31.0852 11.7402C31.7443 11.7012 32.4042 11.8041 33.0201 12.0422C33.6361 12.2803 34.1936 12.6479 34.6552 13.1202L34.9452 12.8502L34.6652 13.1202C35.5789 14.172 36.0455 15.5393 35.9652 16.9302C36.0259 18.296 35.5565 19.6324 34.6552 20.6602L34.9452 20.9302H34.9352ZM35.9352 22.0202L35.9952 22.0702L35.9352 22.0202Z" fill="white"/>
<path d="M61.3962 13.1408C61.8647 12.6679 62.4298 12.3017 63.0528 12.067C63.6758 11.8323 64.342 11.7347 65.0062 11.7808C65.9895 11.7498 66.9622 11.9922 67.8162 12.4808C68.5787 12.9498 69.171 13.6508 69.5062 14.4808C69.5802 14.6228 69.7 14.7356 69.8462 14.8008C70.0075 14.8606 70.1848 14.8606 70.3462 14.8008L71.2262 14.4608C71.3853 14.3945 71.5116 14.2677 71.5772 14.1083C71.6428 13.9489 71.6425 13.77 71.5762 13.6108L71.2062 13.7608L71.5762 13.6108C71.0718 12.3456 70.1698 11.2787 69.0062 10.5708C67.7922 9.86592 66.4099 9.50307 65.0062 9.52084C64.05 9.49206 63.0977 9.65409 62.2049 9.99749C61.3121 10.3409 60.4966 10.8588 59.8062 11.5208C59.1074 12.2348 58.5644 13.0861 58.2115 14.0208C57.8586 14.9554 57.7036 15.9532 57.7562 16.9508C57.7034 17.95 57.8583 18.9493 58.2112 19.8856C58.564 20.8219 59.1071 21.675 59.8062 22.3908C60.4953 23.0548 61.3105 23.5738 62.2037 23.9174C63.0968 24.2609 64.0497 24.4219 65.0062 24.3908C66.3654 24.4081 67.7046 24.063 68.8862 23.3908C69.9928 22.7584 70.8792 21.8022 71.4262 20.6508C71.4653 20.568 71.4857 20.4775 71.4857 20.3858C71.4857 20.2942 71.4653 20.2037 71.4262 20.1208C71.3581 19.9664 71.2326 19.8444 71.0762 19.7808L70.2262 19.4108C70.1501 19.3654 70.0649 19.3373 69.9768 19.3287C69.8886 19.32 69.7996 19.331 69.7162 19.3608C69.5495 19.4236 69.411 19.5443 69.3262 19.7008C68.9662 20.4463 68.387 21.0639 67.6662 21.4708C66.8401 21.9127 65.9125 22.13 64.9762 22.1008C64.3196 22.1399 63.6622 22.0398 63.047 21.8072C62.4317 21.5746 61.8726 21.2146 61.4062 20.7508C60.4985 19.7001 60.0358 18.337 60.1162 16.9508C60.0341 15.5674 60.4972 14.2069 61.4062 13.1608L61.3962 13.1408ZM70.3162 14.8008L70.2062 14.4908L70.3162 14.8008Z" fill="white"/>
<path d="M76.2777 7.35063C76.4472 7.18987 76.5818 6.9959 76.6729 6.78084C76.7641 6.56577 76.81 6.33422 76.8077 6.10063C76.815 5.86133 76.7726 5.62312 76.6831 5.40107C76.5936 5.17902 76.459 4.97797 76.2877 4.81063C75.9482 4.49068 75.4993 4.3125 75.0327 4.3125C74.5662 4.3125 74.1173 4.49068 73.7777 4.81063C73.6037 4.97634 73.4666 5.17687 73.3753 5.39914C73.2839 5.62142 73.2405 5.86044 73.2477 6.10063C73.2371 6.34182 73.278 6.5825 73.3677 6.80665C73.4573 7.0308 73.5937 7.23329 73.7677 7.40063L74.0077 7.12063L73.7377 7.40063L74.0177 7.10063L73.7377 7.40063C74.0823 7.72119 74.5371 7.89668 75.0077 7.89063C75.241 7.89058 75.4718 7.84363 75.6866 7.75258C75.9013 7.66153 76.0955 7.52824 76.2577 7.36063L76.2777 7.35063Z" fill="white"/>
<path d="M75.5312 9.931H74.5312C74.439 9.92513 74.3467 9.93896 74.2603 9.97156C74.1739 10.0042 74.0955 10.0548 74.0302 10.1201C73.9649 10.1853 73.9143 10.2638 73.8817 10.3502C73.8491 10.4365 73.8353 10.5289 73.8412 10.621V23.261C73.8353 23.3531 73.8491 23.4455 73.8817 23.5318C73.9143 23.6182 73.9649 23.6967 74.0302 23.7619C74.0955 23.8272 74.1739 23.8778 74.2603 23.9104C74.3467 23.943 74.439 23.9569 74.5312 23.951H75.5312C75.6233 23.9569 75.7156 23.943 75.802 23.9104C75.8884 23.8778 75.9668 23.8272 76.0321 23.7619C76.0974 23.6967 76.148 23.6182 76.1806 23.5318C76.2132 23.4455 76.227 23.3531 76.2212 23.261V10.621C76.227 10.5289 76.2132 10.4365 76.1806 10.3502C76.148 10.2638 76.0974 10.1853 76.0321 10.1201C75.9668 10.0548 75.8884 10.0042 75.802 9.97156C75.7156 9.93896 75.6233 9.92513 75.5312 9.931Z" fill="white"/>
</svg>
