<svg width="85" height="20" viewBox="0 0 85 20" fill="none" xmlns="http://www.w3.org/2000/svg">
<g clip-path="url(#clip0_596_1728)">
<path d="M22.395 10.3228V10.285C22.395 6.57948 25.3245 3.51677 29.4103 3.51677C33.5347 3.51677 36.3871 6.57949 36.3871 10.2472V10.285C36.3871 13.9905 33.4576 17.0532 29.3718 17.0532C25.2859 17.0532 22.395 13.9905 22.395 10.3228ZM33.9587 10.3228V10.285C33.9587 7.75163 32.07 5.63421 29.4103 5.63421C26.7507 5.63421 24.9005 7.71381 24.9005 10.2472V10.285C24.9005 12.8183 26.7892 14.9358 29.4489 14.9358C32.1085 14.9358 33.9587 12.8562 33.9587 10.3228ZM39.8562 4.80236V15.8054C39.8562 16.4482 40.3573 16.9398 41.0126 16.9398C41.6679 16.9398 42.169 16.4482 42.169 15.8054V7.94069L45.4068 12.7049C45.6766 13.083 45.9464 13.3098 46.3705 13.3098C46.7944 13.3098 47.1028 13.083 47.3726 12.7049L50.649 7.90287V15.7676C50.649 16.3726 51.1886 16.9019 51.8053 16.9019C52.4606 16.9019 53.0003 16.4104 53.0003 15.7676V4.80236C53.0003 4.15957 52.4992 3.63021 51.8053 3.63021H51.5741C51.1115 3.63021 50.7646 3.81926 50.4948 4.23519L46.4089 10.474L42.4002 4.273C42.169 3.9327 41.822 3.66802 41.3209 3.66802H41.0896C40.3959 3.63021 39.8562 4.15957 39.8562 4.80236ZM56.3923 15.3517L61.3647 4.49987C61.6345 3.9327 62.0971 3.55459 62.7909 3.55459H62.9065C63.5618 3.55459 64.0243 3.89489 64.2942 4.49987L69.2665 15.3517C69.3436 15.5029 69.3822 15.692 69.3822 15.8432C69.3822 16.4482 68.9197 16.9398 68.2644 16.9398C67.7248 16.9398 67.3393 16.6373 67.108 16.1457L66.0287 13.688H59.5145L58.3966 16.2214C58.204 16.675 57.8185 16.9398 57.3174 16.9398C56.7007 16.9398 56.2381 16.486 56.2381 15.881C56.2381 15.692 56.3152 15.5029 56.3923 15.3517ZM65.1807 11.6084L62.8294 6.31481L60.4781 11.6084H65.1807ZM72.62 4.87798C72.62 4.23519 73.1211 3.70583 73.8149 3.70583H77.631C81.8327 3.70583 84.7619 6.54167 84.7619 10.2094V10.2472C84.7619 13.9526 81.8327 16.7885 77.631 16.7885H73.8149C73.1596 16.7885 72.62 16.297 72.62 15.6163V4.87798ZM77.631 14.7467C80.4448 14.7467 82.2948 12.8939 82.2948 10.3228V10.285C82.2948 7.71382 80.4448 5.82326 77.631 5.82326H74.9713V14.7467H77.631ZM0 16.486C0 17.091 0.501094 17.6203 1.15637 17.6203C1.7731 17.6203 2.31274 17.1288 2.31274 16.486V5.44515L16.459 16.9775C16.883 17.3178 17.1528 17.5826 17.731 17.5826H17.8081C18.4633 17.5826 18.9645 17.091 18.9645 16.4482V3.28991C18.9645 2.68493 18.4633 2.15557 17.8081 2.15557C17.1913 2.15557 16.6517 2.64712 16.6517 3.28991V14.1795L2.6982 2.79837C2.31274 2.45806 2.00437 2.15557 1.42619 2.15557H1.19491C0.501094 2.15557 0 2.68493 0 3.32772V16.486ZM6.70695 10.285C6.05167 10.285 5.55058 10.7765 5.55058 11.4193V18.1875C5.55058 18.7925 6.05167 19.3218 6.70695 19.3218C7.32367 19.3218 7.86331 18.8303 7.86331 18.1875V11.3815C7.86331 10.7765 7.36222 10.285 6.70695 10.285ZM12.2961 14.7845C11.6408 14.7845 11.1397 15.2761 11.1397 15.9188V18.1875C11.1397 18.7925 11.6408 19.3218 12.2961 19.3218C12.9128 19.3218 13.4524 18.8303 13.4524 18.1875V15.9188C13.4139 15.2761 12.9128 14.7845 12.2961 14.7845ZM12.2961 0.71875C11.6408 0.71875 11.1397 1.21029 11.1397 1.85309V8.24321C11.1397 8.84817 11.6408 9.37753 12.2961 9.37753C12.9128 9.37753 13.4524 8.88593 13.4524 8.24321V1.85309C13.4139 1.21029 12.9128 0.71875 12.2961 0.71875ZM6.70695 0.71875C6.05167 0.71875 5.55058 1.21029 5.55058 1.85309V3.74365C5.55058 4.34862 6.05167 4.87798 6.70695 4.87798C7.32367 4.87798 7.86331 4.38643 7.86331 3.74365V1.85309C7.86331 1.21029 7.36222 0.71875 6.70695 0.71875Z" fill="white"/>
</g>
<defs>
<clipPath id="clip0_596_1728">
<rect width="84.7619" height="20" fill="white"/>
</clipPath>
</defs>
</svg>
