<svg width="92" height="24" viewBox="0 0 92 24" fill="none" xmlns="http://www.w3.org/2000/svg">
<g clip-path="url(#clip0_596_1717)">
<mask id="mask0_596_1717" style="mask-type:alpha" maskUnits="userSpaceOnUse" x="0" y="0" width="25" height="24">
<path fill-rule="evenodd" clip-rule="evenodd" d="M0 0H24.5798V24H0V0Z" fill="white"/>
</mask>
<g mask="url(#mask0_596_1717)">
<path fill-rule="evenodd" clip-rule="evenodd" d="M16.3866 20C11.8617 20 8.19329 16.4182 8.19329 12C8.19329 7.5819 11.8617 4.00001 16.3866 4.00001C20.9114 4.00001 24.5798 7.5819 24.5798 12C24.5798 5.37254 19.0775 0 12.2899 0C5.50233 0 0 5.37254 0 12C0 18.6275 5.50233 24 12.2899 24C19.0775 24 24.5798 18.6275 24.5798 12C24.5798 16.4182 20.9114 20 16.3866 20Z" fill="url(#paint0_linear_596_1717)"/>
</g>
<path fill-rule="evenodd" clip-rule="evenodd" d="M12.2891 18.9272C13.4946 19.6085 14.8927 20 16.3857 20C20.9106 20 24.579 16.4184 24.579 12C24.579 7.58185 20.9106 4 16.3857 4C14.8927 4 13.4946 4.39199 12.2891 5.07306C14.7375 6.45626 16.3857 9.03947 16.3857 12C16.3857 14.9608 14.7375 17.544 12.2891 18.9272Z" fill="url(#paint1_linear_596_1717)"/>
<path fill-rule="evenodd" clip-rule="evenodd" d="M49.7745 4.16237C49.7745 3.94657 49.8376 3.77703 49.9636 3.65372C50.0896 3.53041 50.263 3.46875 50.4836 3.46875H52.5398C52.7604 3.46875 52.9337 3.53041 53.0597 3.65372C53.1857 3.77703 53.2488 3.94657 53.2488 4.16237V9.06397C53.2488 9.29519 53.2961 9.41077 53.3906 9.41077C53.4694 9.41077 53.5718 9.34912 53.6979 9.22582C54.076 8.84047 54.5329 8.53987 55.0687 8.32409C55.6043 8.10832 56.2031 8.00039 56.8649 8.00039C57.5424 8.00039 58.153 8.10059 58.6965 8.30099C59.2401 8.50132 59.7049 8.78647 60.091 9.15644C60.477 9.52634 60.7764 9.97334 60.9891 10.4974C61.2018 11.0215 61.3081 11.6072 61.3081 12.2546V19.1446C61.3081 19.3603 61.2451 19.5299 61.1191 19.6532C60.993 19.7765 60.8197 19.8382 60.5991 19.8382H58.5666C58.3459 19.8382 58.1727 19.7765 58.0466 19.6532C57.9205 19.5299 57.8575 19.3603 57.8575 19.1446V13.1332C57.8575 12.4858 57.6684 11.9695 57.2903 11.5841C56.9121 11.1988 56.4001 11.0061 55.7541 11.0061C54.919 11.0061 54.2927 11.3298 53.8751 11.9771C53.4576 12.6245 53.2488 13.5493 53.2488 14.7517V19.1446C53.2488 19.3603 53.1857 19.5299 53.0597 19.6532C52.9337 19.7765 52.7604 19.8382 52.5398 19.8382H50.4836C50.263 19.8382 50.0896 19.7765 49.9636 19.6532C49.8376 19.5299 49.7745 19.3603 49.7745 19.1446V4.16237ZM31.7181 18.0346C31.8283 17.6493 32.1277 17.4566 32.6162 17.4566C33.0731 17.4412 33.4355 17.3372 33.7034 17.1445C33.9712 16.9519 34.1052 16.6936 34.1052 16.3699C34.1052 16.0617 33.9476 15.8266 33.6325 15.6648C33.3174 15.5029 32.9273 15.3604 32.4625 15.2371C31.9978 15.1138 31.4935 14.9789 30.95 14.8324C30.4063 14.686 29.9022 14.4779 29.4373 14.2082C28.9725 13.9384 28.5826 13.5801 28.2674 13.1331C27.9523 12.6861 27.7947 12.0927 27.7947 11.3528C27.7947 10.8904 27.8932 10.4588 28.0901 10.058C28.2871 9.65729 28.5708 9.30277 28.941 8.99452C29.3113 8.68619 29.7564 8.44342 30.2764 8.26619C30.7963 8.08889 31.3872 8.00032 32.049 8.00032C33.1204 8.00032 34.0736 8.20064 34.9087 8.60144C35.7438 9.00217 36.3583 9.54164 36.7522 10.2199C36.8625 10.3894 36.8822 10.559 36.8113 10.7285C36.7404 10.8981 36.6025 11.0214 36.3977 11.0985L34.9087 11.6996C34.8142 11.7458 34.7118 11.769 34.6014 11.769C34.3652 11.769 34.1524 11.6302 33.9633 11.3528C33.7428 11.0445 33.467 10.8133 33.1361 10.6591C32.8052 10.505 32.4822 10.428 32.1671 10.428C31.7732 10.428 31.4541 10.5012 31.2099 10.6476C30.9657 10.7941 30.8435 10.9983 30.8435 11.2603C30.8435 11.5686 31.0012 11.7998 31.3163 11.9539C31.6314 12.1081 32.0253 12.2391 32.498 12.347C32.9707 12.4549 33.4867 12.5743 34.0461 12.7054C34.6054 12.8364 35.1214 13.0367 35.5941 13.3065C36.0668 13.5763 36.4607 13.9462 36.7759 14.4163C37.091 14.8864 37.2485 15.5145 37.2485 16.3006C37.2485 16.8093 37.1343 17.2871 36.9058 17.7341C36.6773 18.1811 36.3583 18.5741 35.9486 18.9133C35.539 19.2523 35.0466 19.5221 34.4715 19.7224C33.8963 19.9228 33.2622 20.023 32.5689 20.023H32.2143C32.1041 20.023 31.9859 20.0153 31.8598 19.9999C31.6551 19.9691 31.5053 19.8843 31.4108 19.7456C31.3163 19.6069 31.3005 19.4296 31.3636 19.2138L31.7181 18.0346ZM28.7164 20.0231C28.1334 20.0231 27.6449 19.8343 27.251 19.4566C26.8571 19.079 26.6602 18.6127 26.6602 18.0578C26.6602 17.4875 26.8571 17.0136 27.251 16.636C27.6449 16.2583 28.1334 16.0695 28.7164 16.0695C29.2993 16.0695 29.7878 16.2583 30.1817 16.636C30.5756 17.0136 30.7726 17.4875 30.7726 18.0578C30.7726 18.6127 30.5756 19.079 30.1817 19.4566C29.7878 19.8343 29.2993 20.0231 28.7164 20.0231ZM46.9148 19.1445C47.8917 18.5587 48.5535 17.7495 48.9001 16.7168C48.9631 16.5164 48.9474 16.343 48.8529 16.1965C48.7583 16.0501 48.6008 15.9538 48.3801 15.9076L46.3712 15.5145C46.1349 15.5145 45.9537 15.5415 45.8277 15.5954C45.7015 15.6494 45.5755 15.792 45.4495 16.0231C45.2604 16.3777 44.9965 16.6513 44.6577 16.8439C44.3189 17.0366 43.9132 17.133 43.4406 17.133C42.637 17.133 41.991 16.8517 41.5025 16.2891C41.0141 15.7264 40.7699 14.9673 40.7699 14.0116C40.7699 13.056 41.0102 12.2969 41.4907 11.7343C41.9713 11.1717 42.6212 10.8904 43.4406 10.8904C43.929 10.8904 44.3544 10.9983 44.7168 11.2141C45.0792 11.4298 45.347 11.7304 45.5204 12.1158C45.6464 12.347 45.7686 12.4934 45.8867 12.5551C46.0049 12.6167 46.1822 12.6475 46.4185 12.6475L48.4038 12.2776C48.6244 12.2314 48.7858 12.1351 48.8883 11.9886C48.9907 11.8422 49.0104 11.6688 48.9474 11.4684C48.6323 10.374 47.9784 9.52244 46.9857 8.91359C45.993 8.30474 44.7641 8.00032 43.2987 8.00032C42.4007 8.00032 41.5773 8.14672 40.8289 8.43959C40.0805 8.73247 39.4385 9.14474 38.9028 9.67657C38.367 10.2083 37.9495 10.8442 37.6501 11.584C37.3507 12.3238 37.2011 13.1331 37.2011 14.0116C37.2011 14.8903 37.3507 15.6994 37.6501 16.4393C37.9495 17.1792 38.367 17.815 38.9028 18.3468C39.4385 18.8785 40.0805 19.2909 40.8289 19.5838C41.5773 19.8766 42.4007 20.023 43.2987 20.023C44.7326 20.023 45.9379 19.7302 46.9148 19.1445ZM65.7515 19.5722C66.5236 19.8727 67.3666 20.023 68.2804 20.023C69.1943 20.023 70.0332 19.8727 70.7975 19.5722C71.5617 19.2716 72.2234 18.8554 72.7827 18.3237C73.3421 17.7919 73.7793 17.1561 74.0945 16.4162C74.4096 15.6763 74.5672 14.8748 74.5672 14.0116C74.5672 13.1485 74.4096 12.347 74.0945 11.6071C73.7793 10.8673 73.3421 10.2314 72.7827 9.69967C72.2234 9.16792 71.5617 8.75174 70.7975 8.45114C70.0332 8.15062 69.1943 8.00032 68.2804 8.00032C67.3666 8.00032 66.5236 8.15062 65.7515 8.45114C64.9795 8.75174 64.3138 9.16792 63.7544 9.69967C63.195 10.2314 62.7617 10.8673 62.4545 11.6071C62.1472 12.347 61.9936 13.1485 61.9936 14.0116C61.9936 14.8748 62.1472 15.6763 62.4545 16.4162C62.7617 17.1561 63.195 17.7919 63.7544 18.3237C64.3138 18.8554 64.9795 19.2716 65.7515 19.5722ZM68.2804 17.1331C69.1313 17.1331 69.8127 16.8441 70.3248 16.2661C70.8369 15.688 71.0929 14.9366 71.0929 14.0118C71.0929 13.087 70.8369 12.3355 70.3248 11.7575C69.8127 11.1795 69.1313 10.8905 68.2804 10.8905C67.4296 10.8905 66.7442 11.1795 66.2242 11.7575C65.7043 12.3355 65.4443 13.087 65.4443 14.0118C65.4443 14.9366 65.7043 15.688 66.2242 16.2661C66.7442 16.8441 67.4296 17.1331 68.2804 17.1331ZM78.3962 19.5722C79.1682 19.8727 80.0108 20.023 80.9247 20.023C81.8385 20.023 82.678 19.8727 83.4416 19.5722C84.206 19.2716 84.8676 18.8554 85.4273 18.3237C85.987 17.7919 86.424 17.1561 86.7391 16.4162C87.0542 15.6763 87.2113 14.8748 87.2113 14.0116C87.2113 13.1485 87.0542 12.347 86.7391 11.6071C86.424 10.8673 85.987 10.2314 85.4273 9.69967C84.8676 9.16792 84.206 8.75174 83.4416 8.45114C82.678 8.15062 81.8385 8.00032 80.9247 8.00032C80.0108 8.00032 79.1682 8.15062 78.3962 8.45114C77.6242 8.75174 76.9579 9.16792 76.399 9.69967C75.8396 10.2314 75.4063 10.8673 75.099 11.6071C74.7918 12.347 74.6382 13.1485 74.6382 14.0116C74.6382 14.8748 74.7918 15.6763 75.099 16.4162C75.4063 17.1561 75.8396 17.7919 76.399 18.3237C76.9579 18.8554 77.6242 19.2716 78.3962 19.5722ZM80.9247 17.1331C81.7757 17.1331 82.4572 16.8441 82.9694 16.2661C83.4815 15.688 83.7376 14.9366 83.7376 14.0118C83.7376 13.087 83.4815 12.3355 82.9694 11.7575C82.4572 11.1795 81.7757 10.8905 80.9247 10.8905C80.0744 10.8905 79.389 11.1795 78.8685 11.7575C78.3487 12.3355 78.0888 13.087 78.0888 14.0118C78.0888 14.9366 78.3487 15.688 78.8685 16.2661C79.389 16.8441 80.0744 17.1331 80.9247 17.1331ZM88.0623 3.65372C87.9366 3.77703 87.8737 3.94657 87.8737 4.16237V19.1446C87.8737 19.3603 87.9366 19.5299 88.0623 19.6532C88.1888 19.7765 88.3621 19.8382 88.5829 19.8382H90.6391C90.8591 19.8382 91.0324 19.7765 91.1589 19.6532C91.2846 19.5299 91.3475 19.3603 91.3475 19.1446V4.16237C91.3475 3.94657 91.2846 3.77703 91.1589 3.65372C91.0324 3.53041 90.8591 3.46875 90.6391 3.46875H88.5829C88.3621 3.46875 88.1888 3.53041 88.0623 3.65372Z" fill="white"/>
</g>
<defs>
<linearGradient id="paint0_linear_596_1717" x1="12.2899" y1="0" x2="12.2899" y2="24" gradientUnits="userSpaceOnUse">
<stop stop-color="white" stop-opacity="0.4"/>
<stop offset="1" stop-color="white" stop-opacity="0.69"/>
</linearGradient>
<linearGradient id="paint1_linear_596_1717" x1="23.794" y1="17.9561" x2="23.794" y2="4" gradientUnits="userSpaceOnUse">
<stop stop-color="white" stop-opacity="0.31"/>
<stop offset="1" stop-color="white" stop-opacity="0.91"/>
<stop offset="1" stop-color="white" stop-opacity="0.76"/>
</linearGradient>
<clipPath id="clip0_596_1717">
<rect width="92" height="24" fill="white"/>
</clipPath>
</defs>
</svg>
