<svg width="131" height="137" viewBox="0 0 131 137" fill="none" xmlns="http://www.w3.org/2000/svg">
<path d="M3.20156 55.5105C6.12783 54.8097 9.12565 54.4515 12.1346 54.443C19.5672 54.1289 26.8209 56.7758 32.3043 61.803C34.9894 64.439 37.084 67.6152 38.4496 71.1213C39.8153 74.6274 40.4208 78.3836 40.2261 82.1412V130.683C40.2441 131.199 40.159 131.713 39.9757 132.196C39.7924 132.678 39.5146 133.119 39.1586 133.492C38.785 133.848 38.3441 134.126 37.8617 134.309C37.3793 134.493 36.8652 134.578 36.3495 134.56H30.7312C30.2155 134.578 29.7014 134.493 29.219 134.309C28.7366 134.126 28.2957 133.848 27.9221 133.492C27.5661 133.119 27.2883 132.678 27.105 132.196C26.9217 131.713 26.8366 131.199 26.8546 130.683V81.6356C27.0921 79.661 26.8765 77.6582 26.2243 75.7794C25.572 73.9005 24.5002 72.195 23.0903 70.7923C19.9746 68.3647 16.0762 67.1652 12.1346 67.4213C9.83197 67.3918 7.53313 67.6179 5.28033 68.0955C4.24191 68.333 3.15172 68.1513 2.24645 67.5899C1.85677 67.2994 1.53451 66.9281 1.30177 66.5014C1.06903 66.0747 0.931313 65.6027 0.89806 65.1178L-0.000865936 60.0613V59.6681C-0.00497818 58.6949 0.310871 57.7474 0.89806 56.9713C1.45242 56.2094 2.27602 55.6871 3.20156 55.5105Z" fill="white"/>
<path d="M119.887 64.8365L118.258 66.4096L119.887 64.8365C116.116 61.0952 111.617 58.1676 106.669 56.2348C101.722 54.302 96.4296 53.4052 91.1212 53.5999C85.9187 53.4481 80.7406 54.3672 75.9082 56.3001C71.0758 58.2331 66.6923 61.1387 63.0297 64.8365V3.93413C63.049 3.40979 62.9646 2.8868 62.7814 2.39512C62.5982 1.90344 62.3199 1.45273 61.9622 1.0688C61.1804 0.356929 60.1539 -0.0255017 59.0969 0.00132134H53.4786C52.4571 -0.0139124 51.4698 0.368923 50.7256 1.0688C50.3499 1.44237 50.0559 1.89002 49.8625 2.3833C49.6691 2.87659 49.5803 3.40471 49.602 3.93413V94.9505C49.3566 100.538 50.2568 106.117 52.2471 111.344C54.2375 116.571 57.2759 121.336 61.1757 125.346L62.6926 123.829L61.1195 125.402C64.9676 129.149 69.5357 132.077 74.5476 134.008C79.5594 135.939 84.9109 136.834 90.2784 136.638C95.6501 136.805 100.999 135.869 105.995 133.888C110.99 131.907 115.527 128.923 119.325 125.121C123.223 121.154 126.266 116.43 128.267 111.241C130.267 106.052 131.182 100.507 130.955 94.9505C131.206 89.4471 130.357 83.9489 128.456 78.7779C126.556 73.607 123.642 68.8673 119.887 64.8365ZM111.965 117.592L111.459 117.087L110.336 116.075C107.759 118.737 104.638 120.813 101.187 122.161C97.7352 123.508 94.0338 124.096 90.3346 123.885C86.6443 124.092 82.9527 123.502 79.511 122.154C76.0693 120.806 72.9582 118.733 70.3897 116.075C65.3151 110.307 62.6767 102.794 63.0297 95.1191C62.587 87.3151 65.1846 79.6431 70.2773 73.7134C72.8724 71.0629 76.0054 68.9994 79.4653 67.662C82.9252 66.3246 86.6315 65.7442 90.3346 65.9601C94.0381 65.7406 97.7455 66.3192 101.206 67.6568C104.666 68.9945 107.799 71.0599 110.392 73.7134L112.021 72.1964L110.448 73.7134C115.582 79.6226 118.203 87.3042 117.752 95.1191C118.093 102.792 115.456 110.301 110.392 116.075L112.021 117.592H111.965ZM117.583 123.716L117.92 123.997L117.583 123.716Z" fill="white"/>
</svg>
